<svg width="24" height="26" viewBox="0 0 24 26" fill="none" xmlns="http://www.w3.org/2000/svg">
<path d="M24 12.8375C24 11.1847 23.6829 9.58202 23.0569 8.07412C22.4528 6.61639 21.5863 5.30918 20.4847 4.18592C19.3831 3.06266 18.0984 2.17911 16.6715 1.56313C15.19 0.924852 13.621 0.601533 12 0.601533C10.379 0.601533 8.80729 0.924851 7.32848 1.56313C5.89886 2.17911 4.61686 3.06266 3.51526 4.18592C2.41367 5.30918 1.54716 6.61918 0.943056 8.07412C0.317087 9.58201 3.09813e-06 11.1847 2.95642e-06 12.8375C2.81471e-06 14.4903 0.317086 16.093 0.943055 17.6009C1.54715 19.0586 2.41367 20.3658 3.51526 21.4891C4.61686 22.6124 5.90159 23.4959 7.32847 24.1119C8.80729 24.7502 10.379 25.0735 12 25.0735C13.621 25.0735 15.1927 24.7502 16.6715 24.1119C18.1011 23.4959 19.3831 22.6124 20.4847 21.4891C21.5863 20.3658 22.4528 19.0558 23.0569 17.6009C23.6829 16.0902 24 14.4903 24 12.8375ZM17.467 13.395L7.8533 13.395L11.3385 16.9125L10.5704 17.704L5.74579 12.8375L10.5731 7.97099L11.3412 8.76257L7.85604 12.2801L17.467 12.2801L17.467 13.395Z" fill="white"/>
</svg>
