<svg width="16" height="20" viewBox="0 0 16 20" fill="none" xmlns="http://www.w3.org/2000/svg">
<path d="M14.764 20C14.6337 20 14.5057 19.9657 14.3928 19.9005L7.99779 16.2333L1.60276 19.9005C1.48933 19.9655 1.36081 19.9996 1.23006 19.9993C1.09932 19.9991 0.970939 19.9644 0.85778 19.8989C0.744622 19.8334 0.650657 19.7394 0.585295 19.6261C0.519933 19.5129 0.485468 19.3845 0.485352 19.2537V0.746269C0.485352 0.548346 0.563976 0.35853 0.703928 0.218577C0.843881 0.0786245 1.0337 0 1.23162 0H14.764C14.9619 0 15.1517 0.0786245 15.2916 0.218577C15.4316 0.35853 15.5102 0.548346 15.5102 0.746269V19.2537C15.5102 19.4517 15.4316 19.6415 15.2916 19.7814C15.1517 19.9214 14.9619 20 14.764 20ZM7.99779 14.6269C8.12809 14.6269 8.2561 14.6612 8.36893 14.7264L14.0177 17.9652V1.49254H1.97789V17.9652L7.62665 14.7264C7.73948 14.6612 7.86749 14.6269 7.99779 14.6269Z" fill="#F5BD36"/>
</svg>
