<svg width="21" height="20" viewBox="0 0 21 20" fill="none" xmlns="http://www.w3.org/2000/svg">
<path d="M16.2671 19.9998H4.72877C4.08685 19.9996 3.45343 19.8529 2.87684 19.5708C2.30025 19.2886 1.79571 18.8785 1.40171 18.3717C1.00771 17.8649 0.734656 17.2749 0.603376 16.6465C0.472096 16.0182 0.486058 15.3681 0.644196 14.746L2.98263 5.19992C3.02475 5.02924 3.12405 4.87815 3.26401 4.77178C3.40397 4.66541 3.57614 4.61019 3.75186 4.61531H16.6363C16.806 4.60754 16.9735 4.65615 17.1126 4.75355C17.2518 4.85096 17.3548 4.99168 17.4056 5.15376L20.3132 14.5075C20.512 15.1428 20.5578 15.8161 20.4468 16.4725C20.3359 17.1289 20.0713 17.7497 19.6748 18.2844C19.2847 18.8213 18.7719 19.2572 18.1791 19.5556C17.5863 19.854 16.9307 20.0063 16.2671 19.9998ZM4.32877 6.15375L2.10572 15.1152C2.00672 15.5106 1.99879 15.9233 2.08252 16.3222C2.16625 16.7211 2.33945 17.0957 2.58907 17.4179C2.83868 17.7402 3.1582 18.0015 3.52352 18.1822C3.88884 18.363 4.29043 18.4584 4.698 18.4613H16.2363C16.655 18.462 17.0678 18.3633 17.4409 18.1735C17.814 17.9836 18.1367 17.7079 18.3825 17.369C18.6354 17.0282 18.8041 16.6325 18.875 16.2141C18.9458 15.7957 18.9168 15.3664 18.7902 14.9614L16.0825 6.15375H4.32877Z" fill="black"/>
<path d="M13.5595 10.7691C13.3555 10.7691 13.1598 10.6881 13.0156 10.5438C12.8713 10.3996 12.7903 10.2039 12.7903 9.9999V3.84612C12.7903 3.23408 12.5471 2.64712 12.1144 2.21435C11.6816 1.78157 11.0946 1.53845 10.4826 1.53845C9.87056 1.53845 9.28359 1.78157 8.85082 2.21435C8.41805 2.64712 8.17492 3.23408 8.17492 3.84612V9.9999C8.17492 10.2039 8.09388 10.3996 7.94962 10.5438C7.80536 10.6881 7.60971 10.7691 7.4057 10.7691C7.20169 10.7691 7.00603 10.6881 6.86177 10.5438C6.71752 10.3996 6.63647 10.2039 6.63647 9.9999V3.84612C6.63647 2.82606 7.04169 1.84779 7.76298 1.1265C8.48426 0.405215 9.46254 0 10.4826 0C11.5026 0 12.4809 0.405215 13.2022 1.1265C13.9235 1.84779 14.3287 2.82606 14.3287 3.84612V9.9999C14.3287 10.2039 14.2477 10.3996 14.1034 10.5438C13.9591 10.6881 13.7635 10.7691 13.5595 10.7691Z" fill="black"/>
</svg>
