<svg width="20" height="20" viewBox="0 0 20 20" fill="none" xmlns="http://www.w3.org/2000/svg">
<path d="M1.34615 5.96157H6.48489C6.74302 6.9579 7.64174 7.6991 8.71769 7.6991C9.79365 7.6991 10.6924 6.9579 10.9505 5.96157H18.6538C18.9724 5.96157 19.2308 5.70315 19.2308 5.38464C19.2308 5.06613 18.9724 4.80772 18.6538 4.80772H10.9505C10.6924 3.81139 9.79365 3.07019 8.71769 3.07019C7.64174 3.07019 6.74302 3.81139 6.48489 4.80772H1.34615C1.02764 4.80772 0.769226 5.06613 0.769226 5.38464C0.769226 5.70315 1.02764 5.96157 1.34615 5.96157ZM8.71769 4.22404C9.35772 4.22404 9.8783 4.74462 9.8783 5.38464C9.8783 6.02467 9.35772 6.54525 8.71769 6.54525C8.07767 6.54525 7.55709 6.02467 7.55709 5.38464C7.55709 4.74462 8.07767 4.22404 8.71769 4.22404Z" fill="#F5BD36"/>
<path d="M18.6538 9.42308H17.4184C17.1602 8.42675 16.2615 7.68555 15.1855 7.68555C14.1096 7.68555 13.2109 8.42675 12.9527 9.42308H1.34615C1.02764 9.42308 0.769226 9.68149 0.769226 10C0.769226 10.3185 1.02764 10.5769 1.34615 10.5769H12.9527C13.2109 11.5733 14.1096 12.3145 15.1855 12.3145C16.2615 12.3145 17.1602 11.5733 17.4184 10.5769H18.6538C18.9724 10.5769 19.2308 10.3185 19.2308 10C19.2308 9.68149 18.9724 9.42308 18.6538 9.42308ZM15.1855 11.1606C14.5455 11.1606 14.0249 10.64 14.0249 10C14.0249 9.35998 14.5455 8.83939 15.1855 8.83939C15.8256 8.83939 16.3461 9.35998 16.3461 10C16.3461 10.64 15.8256 11.1606 15.1855 11.1606Z" fill="#F5BD36"/>
<path d="M18.6538 14.0384H7.47549C7.2174 13.0421 6.31873 12.3009 5.24338 12.3009C4.16743 12.3009 3.26871 13.0421 3.01058 14.0384H1.34615C1.02764 14.0384 0.769226 14.2968 0.769226 14.6154C0.769226 14.9339 1.02764 15.1923 1.34615 15.1923H3.01058C3.26871 16.1886 4.16743 16.9298 5.24338 16.9298C6.31873 16.9298 7.2174 16.1886 7.47549 15.1923H18.6538C18.9724 15.1923 19.2308 14.9339 19.2308 14.6154C19.2308 14.2968 18.9724 14.0384 18.6538 14.0384ZM5.24338 15.776C4.60336 15.776 4.08278 15.2554 4.08278 14.6154C4.08278 13.9753 4.60336 13.4547 5.24338 13.4547C5.88266 13.4547 6.40324 13.9753 6.40324 14.6154C6.40324 15.2554 5.88266 15.776 5.24338 15.776Z" fill="#F5BD36"/>
</svg>
