<svg width="26" height="26" viewBox="0 0 26 26" fill="none" xmlns="http://www.w3.org/2000/svg">
<path fill-rule="evenodd" clip-rule="evenodd" d="M13 0C13.4498 0 13.8606 0.267264 14.0597 0.689428L17.4368 7.85005L24.9891 9.00539C25.4341 9.07347 25.8036 9.40003 25.9423 9.8478C26.0811 10.2956 25.9649 10.7869 25.6427 11.1154L20.179 16.6852L21.4684 24.554C21.5445 25.0181 21.3622 25.4871 20.9982 25.7638C20.6342 26.0405 20.1517 26.077 19.7535 25.8578L13 22.1406L6.24646 25.8578C5.84829 26.077 5.36576 26.0405 5.00179 25.7638C4.63782 25.4871 4.45553 25.0181 4.53158 24.554L5.82104 16.6852L0.357258 11.1154C0.0350741 10.7869 -0.0810662 10.2956 0.0576526 9.8478C0.196371 9.40003 0.565901 9.07347 1.01093 9.00539L8.56316 7.85005L11.9403 0.689428C12.1394 0.267264 12.5502 0 13 0ZM13 4.03143L10.4079 9.52751C10.2359 9.89221 9.90362 10.1451 9.51911 10.2039L3.72087 11.0909L7.91552 15.367C8.19427 15.6512 8.32151 16.0608 8.25573 16.4622L7.26605 22.5016L12.4499 19.6483C12.7943 19.4588 13.2057 19.4588 13.5501 19.6483L18.734 22.5016L17.7443 16.4622C17.6785 16.0608 17.8057 15.6512 18.0845 15.367L22.2791 11.0909L16.4809 10.2039C16.0964 10.1451 15.7641 9.89221 15.5921 9.52751L13 4.03143Z" fill="#F5BD36"/>
</svg>
