<svg width="21" height="20" viewBox="0 0 21 20" fill="none" xmlns="http://www.w3.org/2000/svg">
<path d="M19.7005 3.40003C19.1902 2.88597 18.5246 2.62472 17.854 2.60878C17.8465 2.60816 17.8434 2.60628 17.8352 2.60503C17.3471 2.55253 17.238 2.00316 17.238 2.00316L17.2324 2.01909C17.1377 1.56722 16.9274 1.13472 16.5774 0.781907C15.6049 -0.198405 14.0215 -0.20528 13.0418 0.767219C12.1543 1.64722 12.0727 3.02316 12.7846 4.00409L12.7821 4.01566C12.7821 4.01566 13.1915 4.46503 12.7712 4.88159L5.27336 12.3172C4.90273 12.685 4.58179 12.3285 4.58179 12.3285L4.57898 12.3428C3.60023 11.5303 2.15211 11.5675 1.22961 12.4825C0.249918 13.4541 0.243355 15.0378 1.21554 16.0178C1.54148 16.3466 1.93898 16.5507 2.35617 16.6572L2.34054 16.6669C2.34054 16.6669 2.94867 16.7885 3.03023 17.3616C3.03023 17.3644 3.03117 17.3644 3.03179 17.3663C3.05492 18.0182 3.31242 18.6635 3.80742 19.1622C4.85273 20.2169 6.55367 20.2235 7.60773 19.1772C8.43492 18.3585 8.6021 17.14 8.13585 16.1425L8.15148 16.1491C8.15148 16.1491 7.73929 15.3719 8.28835 14.8266L15.4962 7.67816C15.4962 7.67816 15.8484 7.30566 16.4868 7.63347C16.5299 7.65534 16.5637 7.66847 16.5924 7.67628C17.5946 8.18253 18.843 8.03441 19.6849 7.20003C20.739 6.15503 20.7459 4.45347 19.7005 3.40003ZM18.934 6.49472C18.3234 7.10066 17.3743 7.14159 16.7093 6.63409C16.698 6.62753 16.689 6.62472 16.6768 6.61722C15.703 6.01378 14.5084 7.11472 14.5084 7.11472L6.99804 14.5625C5.9421 15.6107 6.72617 16.2788 6.72617 16.2788C7.33085 16.8875 7.32648 17.8722 6.71773 18.4763C6.10804 19.0797 5.12429 19.0757 4.51992 18.4669C4.18273 18.1266 4.03992 17.6716 4.08242 17.2307L4.07961 17.2325C4.07961 17.2325 4.15836 16.2016 3.53523 15.9772C3.46836 15.95 3.41867 15.9325 3.41867 15.9325C2.15961 15.5391 1.92711 15.1944 1.92711 15.1944C1.36711 14.6288 1.37086 13.7166 1.93554 13.1563C2.50117 12.596 3.41336 12.5997 3.97367 13.1647C4.03179 13.2235 4.08304 13.2885 4.12929 13.3532L4.12961 13.3522C4.12961 13.3522 4.13242 13.356 4.13336 13.3588C4.14586 13.3772 4.15523 13.396 4.16648 13.4144C4.30429 13.6307 4.82867 14.3141 5.59367 13.5557L13.6655 5.54941C14.7959 4.42847 13.8309 3.71753 13.8309 3.71753L13.844 3.71159C13.8062 3.68034 13.764 3.65941 13.7293 3.62441C13.1402 3.03034 13.1449 2.07222 13.7377 1.48378C14.3305 0.895657 15.2902 0.899407 15.878 1.49284C16.1587 1.77534 16.2984 2.13941 16.308 2.50753L16.3127 2.51503C16.3127 2.51503 16.4968 3.59847 17.598 3.59722C17.5984 3.59753 17.5984 3.59847 17.5987 3.59909C18.0812 3.55784 18.5759 3.71847 18.944 4.08941C19.6055 4.75691 19.6009 5.83347 18.934 6.49472Z" fill="#F5BD36"/>
</svg>
