<svg width="20" height="20" viewBox="0 0 20 20" fill="none" xmlns="http://www.w3.org/2000/svg">
<path d="M10 0C9.31 0 8.75 0.56 8.75 1.25V3.75C8.75 4.44 9.31 5 10 5C10.69 5 11.25 4.44 11.25 3.75V1.25C11.25 0.56 10.69 0 10 0ZM10 15C9.31 15 8.75 15.5588 8.75 16.25V18.75C8.75 19.4412 9.31 20 10 20C10.69 20 11.25 19.4412 11.25 18.75V16.25C11.25 15.5588 10.69 15 10 15ZM15.3025 6.465L17.07 4.69625C17.5588 4.20875 17.5588 3.41625 17.07 2.92875C16.5825 2.44 15.7912 2.44 15.3025 2.92875L13.535 4.69625C13.0463 5.185 13.0463 5.97625 13.535 6.465C14.0238 6.9525 14.815 6.9525 15.3025 6.465ZM4.69625 13.535L2.92875 15.3025C2.44 15.7912 2.44 16.5825 2.92875 17.07C3.41625 17.5588 4.2075 17.5588 4.69625 17.07L6.46375 15.3025C6.9525 14.8137 6.9525 14.0238 6.46375 13.535C5.97625 13.0475 5.185 13.0475 4.69625 13.535ZM4.69625 2.92875C4.2075 2.44 3.41625 2.44 2.92875 2.92875C2.44 3.41625 2.44 4.20875 2.92875 4.69625L4.69625 6.465C5.185 6.9525 5.97625 6.9525 6.46375 6.465C6.9525 5.97625 6.9525 5.185 6.46375 4.69625L4.69625 2.92875ZM15.3025 13.535C14.8137 13.0463 14.0238 13.0463 13.535 13.535C13.0463 14.0238 13.0463 14.8137 13.535 15.3025L15.3025 17.07C15.7912 17.5588 16.5825 17.5588 17.07 17.07C17.5588 16.5825 17.5588 15.7912 17.07 15.3025L15.3025 13.535ZM18.75 8.75H16.25C15.5588 8.75 15 9.31 15 10C15 10.69 15.5588 11.25 16.25 11.25H18.75C19.4412 11.25 20 10.69 20 10C20 9.31 19.4412 8.75 18.75 8.75ZM5 10C5 9.31 4.44 8.75 3.75 8.75H1.25C0.56 8.75 0 9.31 0 10C0 10.69 0.56 11.25 1.25 11.25H3.75C4.44 11.25 5 10.69 5 10Z" fill="white"/>
</svg>
